<?xml version="1.0" encoding="UTF-8"?>
<svg id="Layer_1" xmlns="http://www.w3.org/2000/svg" version="1.1" viewBox="0 0 1080 1080">
  <!-- Generator: Adobe Illustrator 29.1.0, SVG Export Plug-In . SVG Version: 2.1.0 Build 142)  -->
  <defs>
    <style>
      .st0 {
        fill: none;
      }

      .st1 {
        fill: #0073de;
      }
    </style>
  </defs>
  <g>
    <path class="st1" d="M608.72,463.52l-233.04-5.74s-184.63-.82-262.58,54.98c0,0,49.23-41.85,495.62-49.23Z"/>
    <path class="st1" d="M926.89,478.08l40,37.54-11.08-41.23-24.62-4.31,35.69-12.31s-87.39,3.69-216.01-39.39c0,0-181.34-59.7-342.38,27.08h28.18s78.49-45.95,185.16-34.46c0,0,95.18,8.21,165.75,29.54l-21.57,2.28c-15.89,1.68-31.65,4.44-47.16,8.3-37.42,9.3-113.79,27.21-162.46,31.27l-131.7,5.54s155.15,11.14,264.94-14.18c15.17-3.5,30.53-6,46.05-7.1,44.29-3.15,131.79-6.29,191.19,11.44Z"/>
    <g>
      <path d="M119.06,598.63l62.31-75.84h23.8l32.13,75.84h-24.77l-6.17-14.82h-50.41l-12.44,14.82h-24.45ZM199.45,567.15l-10.28-24.13-19.91,24.13h30.18Z"/>
      <path d="M316.17,522.79h24.56l-58.64,75.84h-23.91l-28.56-75.84h24.77l20.01,54.42,41.76-54.42Z"/>
      <path d="M341.59,522.79h97.58l-3.68,18.61h-38.3l-11.36,57.23h-21.31l11.47-57.23h-38.08l3.68-18.61Z"/>
      <path d="M500.83,522.79c28.89.22,56.8,7.46,50.74,37.87-6.17,30.51-37,37.76-65.88,37.97-28.67-.22-56.58-7.46-50.52-37.97,6.06-30.4,36.89-37.65,65.67-37.87ZM497.15,541.4c-16.99.11-36.24,3.46-39.38,19.26-3.14,15.9,14.71,19.26,31.7,19.37,16.98-.11,36.13-3.46,39.27-19.37,3.14-15.79-14.6-19.15-31.59-19.26Z"/>
      <path class="st1" d="M665.8,522.79c21.64,0,35.92,1.62,43.17,8.66,6.17,5.41,7.57,14.71,4.65,29.21-2.92,14.71-8.01,23.8-16.44,29.43-9.95,6.92-24.88,8.55-46.52,8.55s-35.92-1.62-43.27-8.55c-6.06-5.62-7.57-14.71-4.65-29.43,2.92-14.5,8.11-23.8,16.34-29.21,10.17-7.03,25.1-8.66,46.74-8.66ZM662.13,541.4c-14.6,0-25.1.65-30.83,4.87-4,3.14-5.84,8.01-7.14,14.39-1.3,6.49-1.41,11.36,1.3,14.5,4,4.22,14.28,4.87,28.89,4.87s24.99-.65,30.83-4.87c4-3.14,5.84-8,7.14-14.5,1.3-6.38,1.41-11.25-1.3-14.39-4.22-4.22-14.39-4.87-28.89-4.87Z"/>
      <path class="st1" d="M737.09,522.79h67.51c29.1,0,29.43,28.56,2.27,41.22l-33.32,16.01h43.92l-3.68,18.61h-91.85l2.49-12.33,67.07-33.32c10.06-5.08,10.82-11.58-.76-11.58h-57.34l3.68-18.61Z"/>
      <path class="st1" d="M847.43,522.79h92.39l-2.49,12.66-57.77,63.18h-24.99l53.98-57.23h-64.8l3.68-18.61Z"/>
    </g>
  </g>
  <rect class="st0" width="1080" height="1080"/>
</svg>